# xmcd
#
# Track frame offsets: 
#        182
#        10722
#        21370
#        31452
#        41335
#        52230
#        64905
#        77645
#        87910
#        98417
#        107825
#        118665
#        129965
#        141987
#        152117
#        163192
#        173515
#        185765
#        199177
#        213222
#        223935
#        235970
#        247837
#        263225
#        276135
#        288197
#        301585
#        312807
#        324705
#
# Disc length: 4476 seconds
#
# Revision: 0
# Processed by: cddbd v1.4PL0 Copyright (c) Steve Scherf et al.
# Submitted via: ExactAudioCopy v0.90b3
#
DISCID=97117a1d
DTITLE=Reno and Smiley - and the Tennessee Cutups 1951-59 - CD4
DYEAR=1993
DGENRE=Bluegrass
TTITLE0=Brighter Mansion over There
TTITLE1=He Will Forgive You
TTITLE2=Missile Ride
TTITLE3=Buggy Ride
TTITLE4=I Want to Know
TTITLE5=New Jerusalem
TTITLE6=He's Not Ashamed of You
TTITLE7=God's Record Book of Life
TTITLE8=Pray
TTITLE9=Passing of Time
TTITLE10=I'll Trade My Cross for a Crown
TTITLE11=Sailing Home
TTITLE12=Pretending
TTITLE13=I Wouldn't Change You If I Could
TTITLE14=Little Rock Getaway
TTITLE15=Sockeye
TTITLE16=Under Your Spell Again
TTITLE17=Money, Marbles and Chalk
TTITLE18=Dark as a Dungeon
TTITLE19=Freight Train Boogie
TTITLE20=Gathering Flowers from the Hillside
TTITLE21=East Bound Freight Train
TTITLE22=Charlie Brooks and Nellie Adair
TTITLE23=Lonesome Wind Blues
TTITLE24=Mountain Rosa Lee
TTITLE25=She Has Forgotten
TTITLE26=Don't Let Your Sweet Love Die
TTITLE27=Eight More Miles to Louisville
TTITLE28=I'm Blue and Lonesome
EXTD=
EXTT0=
EXTT1=
EXTT2=
EXTT3=
EXTT4=
EXTT5=
EXTT6=
EXTT7=
EXTT8=
EXTT9=
EXTT10=
EXTT11=
EXTT12=
EXTT13=
EXTT14=
EXTT15=
EXTT16=
EXTT17=
EXTT18=
EXTT19=
EXTT20=
EXTT21=
EXTT22=
EXTT23=
EXTT24=
EXTT25=
EXTT26=
EXTT27=
EXTT28=
PLAYORDER=
